[center]
[img]http://img840.imageshack.us/img840/9524/pothy.jpg[/img]


Genre : Comedy

Plot : Max (Dominique Purdy), Aaron (Richard Blair) and Glen (Nicholas Cooper) have a track record littered with strike-outs and misfit hook-ups. The boys embark on a mission to up their hot babe batting average. They meet Hollywood Casanova Johnny Eyelash (Mario Diaz) who teaches these boys the game of scoring A-list arm candy. But there is one problem, the girls are organized, cunning and have an agenda of their own. Its not long before the girls, led by Big Wendy (Jenae Alt) and Little Wendy (Eli Jane) pick up on Johnny's tactics and Hollywood becomes one big booby trap.


Complete name : Hollywood.Sex.Wars.2011.DVDRip.XviD-OCW.avi 
Format : AVI 
Format/Info : Audio Video Interleave 
File size : 1.01 GiB 
Duration : 1h 38mn 
Overall bit rate : 1 464 Kbps 
Writing library : MPlayer 

Video 
ID : 0 
Format : MPEG-4 Visual 
Format profile : Advanced Simple@L5 
Format settings, BVOP : 2 
Format settings, QPel : No 
Format settings, GMC : No warppoints 
Format settings, Matrix : Default (H.263) 
Codec ID : XVID 
Codec ID/Hint : XviD 
Duration : 1h 38mn 
Bit rate : 1 196 Kbps 
Width : 640 pixels 
Height : 352 pixels 
Display aspect ratio : 16:9 
Frame rate : 23.976 fps 
Color space : YUV 
Chroma subsampling : 4:2:0 
Bit depth : 8 bits 
Scan type : Progressive 
Compression mode : Lossy 
Bits/(Pixel*Frame) : 0.221 
Stream size : 846 MiB (82%) 
Writing library : XviD 63 

Audio 
ID : 1 
Format : MPEG Audio 
Format version : Version 1 
Format profile : Layer 3 
Mode : Joint stereo 
Mode extension : MS Stereo 
Codec ID : 55 
Codec ID/Hint : MP3 
Duration : 1h 38mn 
Bit rate mode : Constant 
Bit rate : 256 Kbps 
Channel(s) : 2 channels 
Sampling rate : 44.1 KHz 
Compression mode : Lossy 
Delay relative to video : 42ms 
Stream size : 181 MiB (17%) 
Alignment : Aligned on interleaves 
Interleave, duration : 26 ms (0.63 video frame) 
Interleave, preload duration : 809 ms 
Writing library : LAME3.98.4
 
http://www.imdb.com/title/tt1764366


[img]http://img268.imageshack.us/img268/2615/vlcsnap2012010310h24m15.png[/img]
[img]http://img845.imageshack.us/img845/1604/vlcsnap2012010310h26m13.png[/img]
[img]http://img221.imageshack.us/img221/3536/vlcsnap2012010310h26m38.png[/img]
[img]http://img259.imageshack.us/img259/4264/vlcsnap2012010310h27m55.png[/img][/center]